<svg width="24" height="24" viewBox="0 0 24 24" fill="none" xmlns="http://www.w3.org/2000/svg">
<path d="M20 12V5.74853C20 5.5894 19.9368 5.43679 19.8243 5.32426L16.6757 2.17574C16.5632 2.06321 16.4106 2 16.2515 2H4.6C4.26863 2 4 2.26863 4 2.6V21.4C4 21.7314 4.26863 22 4.6 22H13" stroke="black" stroke-width="1.5" stroke-linecap="round" stroke-linejoin="round"/>
<path d="M8 10H16M8 6H12M8 14H11" stroke="black" stroke-width="1.5" stroke-linecap="round" stroke-linejoin="round"/>
<path d="M16 2V5.4C16 5.73137 16.2686 6 16.6 6H20" stroke="black" stroke-width="1.5" stroke-linecap="round" stroke-linejoin="round"/>
<path d="M19.9922 15.125L22.5477 15.774C22.8137 15.8416 23.0012 16.0833 22.993 16.3576C22.8213 22.1159 19.4999 23 19.4999 23C19.4999 23 16.1786 22.1159 16.0069 16.3576C15.9987 16.0833 16.1862 15.8416 16.4522 15.774L19.0076 15.125C19.3307 15.043 19.6691 15.043 19.9922 15.125Z" stroke="black" stroke-width="1.5" stroke-linecap="round" stroke-linejoin="round"/>
</svg>
