<svg width="24" height="24" viewBox="0 0 24 24" fill="none" xmlns="http://www.w3.org/2000/svg">
<path d="M19 20H5C3.89543 20 3 19.1046 3 18V9C3 7.89543 3.89543 7 5 7H19C20.1046 7 21 7.89543 21 9V18C21 19.1046 20.1046 20 19 20Z" stroke="black" stroke-width="1.5"/>
<path d="M16.5 14C16.2239 14 16 13.7761 16 13.5C16 13.2239 16.2239 13 16.5 13C16.7761 13 17 13.2239 17 13.5C17 13.7761 16.7761 14 16.5 14Z" fill="black" stroke="black" stroke-width="1.5" stroke-linecap="round" stroke-linejoin="round"/>
<path d="M18 7.00004V5.60326C18 4.2892 16.7544 3.33221 15.4847 3.67079L4.48467 6.60413C3.60917 6.8376 3 7.6305 3 8.5366V9.00004" stroke="black" stroke-width="1.5"/>
</svg>
